<?xml version="1.0" standalone="no"?>
<!DOCTYPE svg PUBLIC "-//W3C//DTD SVG 20010904//EN"
 "http://www.w3.org/TR/2001/REC-SVG-20010904/DTD/svg10.dtd">
<svg version="1.0" xmlns="http://www.w3.org/2000/svg"
 width="512.000000pt" height="512.000000pt" viewBox="0 0 512.000000 512.000000"
 preserveAspectRatio="xMidYMid meet">
<metadata>
Created by potrace 1.14, written by Peter Selinger 2001-2017
</metadata>
<g transform="translate(0.000000,512.000000) scale(0.100000,-0.100000)"
fill="#000000" stroke="none">
<path d="M2315 5109 c-1137 -117 -2066 -966 -2269 -2073 -133 -723 33 -1430
476 -2024 93 -125 365 -396 491 -491 356 -265 747 -428 1197 -498 161 -25 539
-25 700 0 488 76 921 266 1274 559 508 423 824 995 918 1663 16 119 17 514 0
630 -58 403 -201 788 -410 1100 -411 613 -1033 1006 -1772 1120 -126 19 -477
28 -605 14z m61 -1473 c11 -8 56 -69 100 -135 43 -66 81 -121 84 -121 3 0 38
52 78 115 41 63 85 124 99 135 56 44 133 9 133 -60 0 -31 -17 -64 -100 -190
-55 -84 -100 -155 -100 -159 0 -4 215 -335 478 -736 l479 -730 -221 -3 c-254
-3 -299 4 -386 56 -185 113 -319 303 -405 576 -29 94 -39 116 -54 116 -16 0
-26 -22 -55 -112 -90 -288 -236 -488 -427 -589 l-84 -44 -253 -3 -253 -3 44
68 c24 37 236 360 471 718 236 357 432 658 438 668 7 15 -9 46 -83 160 -108
167 -122 197 -110 231 20 50 84 72 127 42z m1459 -2021 c36 -35 35 -96 -1
-124 -27 -21 -27 -21 -1274 -21 -1247 0 -1247 0 -1274 21 -36 28 -37 89 -1
124 l24 25 1251 0 1251 0 24 -25z"/>
</g>
</svg>
